<?xml version="1.0" encoding="iso-8859-1"?>
<!-- Generator: Adobe Illustrator 19.0.0, SVG Export Plug-In . SVG Version: 6.00 Build 0)  -->
<svg version="1.1" id="Capa_1" xmlns="http://www.w3.org/2000/svg" xmlns:xlink="http://www.w3.org/1999/xlink" x="0px" y="0px" width="50px" height="60px"
	 viewBox="0 0 480 480" style="enable-background:new 0 0 480 480;" xml:space="preserve">
<g>
	<path style="fill:#78B9EB;" d="M240,92c-83.947,0-152,68.053-152,152s68.053,152,152,152s152-68.053,152-152S323.947,92,240,92z
		 M240,356c-61.856,0-112-50.144-112-112s50.144-112,112-112s112,50.144,112,112C351.934,305.828,301.828,355.934,240,356z"/>
	<path style="fill:#78B9EB;" d="M424,164v240c0,4.418,3.582,8,8,8h8c4.418,0,8-3.582,8-8V164H424z"/>
	<path style="fill:#78B9EB;" d="M32,164v240c0,4.418,3.582,8,8,8h8c4.418,0,8-3.582,8-8V164H32z"/>
</g>

<g>
	<path style="fill:#1E81CE;" d="M240,84c-88.366,0-160,71.634-160,160s71.634,160,160,160s160-71.634,160-160
		C399.899,155.676,328.324,84.101,240,84z M240,388c-79.529,0-144-64.471-144-144s64.471-144,144-144s144,64.471,144,144
		C383.907,323.491,319.491,387.907,240,388z"/>
	<path style="fill:#1E81CE;" d="M240,124c-66.274,0-120,53.726-120,120s53.726,120,120,120s120-53.726,120-120
		C359.925,177.757,306.243,124.075,240,124z M240,348c-57.438,0-104-46.562-104-104s46.562-104,104-104s104,46.562,104,104
		C343.934,301.41,297.41,347.934,240,348z"/>
	<path style="fill:#1E81CE;" d="M440,60h-8c-22.08,0.026-39.974,17.92-40,40v32c0.021,15.886,9.44,30.254,24,36.608V404
		c0,8.837,7.163,16,16,16h8c8.837,0,16-7.163,16-16V168.608c14.56-6.354,23.979-20.722,24-36.608v-32
		C479.974,77.92,462.08,60.026,440,60z M440,404h-8V172h8V404z M464,132c0,13.255-10.745,24-24,24h-8c-13.255,0-24-10.745-24-24v-32
		c0-13.255,10.745-24,24-24h8c13.255,0,24,10.745,24,24V132z"/>
	<path style="fill:#1E81CE;" d="M88,132V76c0-4.418-3.582-8-8-8H8c-4.418,0-8,3.582-8,8v56c0.021,15.886,9.44,30.254,24,36.608V404
		c0,8.837,7.163,16,16,16h8c8.837,0,16-7.163,16-16V168.608C78.56,162.254,87.979,147.886,88,132z M48,404h-8V172h8V404z M72,132
		c0,13.255-10.745,24-24,24h-8c-13.255,0-24-10.745-24-24V84h8v40h16V84h8v40h16V84h8V132z"/>
        
</g>
<g>
</g>
<g>
</g>
<g>
</g>
<g>
</g>
<g>
</g>
<g>
</g>
<g>
</g>
<g>
</g>
<g>
</g>
<g>
</g>
<g>
</g>
<g>
</g>
<g>
</g>
<g>
</g>
<g>
</g>
</svg>
